<?xml version="1.0" encoding="utf-8"?>
<!-- Generator: Adobe Illustrator 24.0.1, SVG Export Plug-In . SVG Version: 6.00 Build 0)  -->
<svg version="1.1" id="Layer_1" xmlns="http://www.w3.org/2000/svg" xmlns:xlink="http://www.w3.org/1999/xlink" x="0px" y="0px"
	 viewBox="0 0 382.5 107.2" style="enable-background:new 0 0 382.5 107.2;" xml:space="preserve">
<style type="text/css">
	.st0{fill:#CA005D;}
	.st1{fill:#FFFFFF;}
</style>
<symbol  id="New_Symbol" viewBox="-188.6 -48.2 377.3 96.3">
	<g>
		<path class="st0" d="M185.3,2.4H28.8c-1.8,0-3.3,1.5-3.3,3.3v39.1c0,1.8,1.5,3.3,3.3,3.3h156.5c1.8,0,3.3-1.5,3.3-3.3V5.7
			C188.6,3.9,187.2,2.4,185.3,2.4z"/>
	</g>
	<g>
		<path class="st0" d="M17.3,48.2H-90.2c1.8,0,3.3-1.5,3.3-3.3V5.7c0-1.8-1.5-3.3-3.3-3.3H17.3c1.8,0,3.3,1.5,3.3,3.3v39.1
			C20.6,46.7,19.1,48.2,17.3,48.2z"/>
		<path class="st1" d="M-86.9,5.7v39.1c0,1.8-1.5,3.3-3.3,3.3h-49h-46.1c-1.8,0-3.3-1.5-3.3-3.3V5.7c0-1.8,1.5-3.3,3.3-3.3h46.1h49
			C-88.4,2.4-86.9,3.9-86.9,5.7z"/>
	</g>
	<g>
		<path class="st0" d="M167.7-48.2h-334.3c-1.8,0-3.3,1.5-3.3,3.3v39.1c0,1.8,1.5,3.3,3.3,3.3h334.3c1.8,0,3.3-1.5,3.3-3.3v-39.1
			C171.1-46.7,169.6-48.2,167.7-48.2z"/>
	</g>
	<path class="st0" d="M-166.9,14.2h-3.8v1.2c-1.5-0.9-2.9-1.4-5-1.4c-3.6,0-5.7,2-5.7,5c0,3.3,2.5,5.6,8.1,5.6c0.9,0,1.7,0,2.4,0v1
		c0,1.9-1.2,3-4,3c-1.7,0-3.2-0.3-5.1-1.1l-0.6,3.4c2.2,0.9,4.1,1.4,6.4,1.4c4.8,0,7.2-2.3,7.2-6.3V14.2z M-174.6,17.2
		c1.4,0,2.5,0.3,3.7,0.9v3.3c-0.7,0-1.6,0.1-2.3,0.1c-2.9,0-4-0.9-4-2.3C-177.2,18-176.3,17.2-174.6,17.2z"/>
	<path class="st0" d="M-158.5,14.2h-4.1v24.9l4.1,0.2V14.2z"/>
	<path class="st0" d="M-149.9,14.2h-4.1v24.9l4.1,0.2V14.2z"/>
	<path class="st0" d="M-138.3,32.4c4.4,0,7.1-2.6,7.1-7.3c0-1.1,0-2.2-0.1-3h-11c0.4-3.2,2.3-4.6,5.5-4.6c2,0,3.4,0.3,5.2,0.9v-3.4
		c-1.9-0.6-3.3-0.9-5.7-0.9c-5.4,0-8.9,2.9-8.9,9.1C-146.3,29.2-142.7,32.4-138.3,32.4z M-135.2,25.1c0,2.4-1.3,4-3.4,4
		c-1.9,0-3.3-1.4-3.7-4H-135.2z"/>
	<path class="st0" d="M-120.7,32.4c4.4,0,7.1-2.6,7.1-7.3c0-1.1,0-2.2-0.1-3h-11c0.4-3.2,2.3-4.6,5.5-4.6c2,0,3.4,0.3,5.2,0.9v-3.4
		c-1.9-0.6-3.3-0.9-5.7-0.9c-5.4,0-8.9,2.9-8.9,9.1C-128.8,29.2-125.2,32.4-120.7,32.4z M-117.6,25.1c0,2.4-1.3,4-3.4,4
		c-1.9,0-3.3-1.4-3.7-4H-117.6z"/>
	<path class="st0" d="M-99.4,25.1c0,2.3-1.2,3.3-3.3,3.3c-1.3,0-2.2-0.2-3.5-0.7V14.2h-4.1v17.7l4,0.2v-1.3c1.5,1,2.9,1.4,4.7,1.4
		c3.9,0,6.2-2.2,6.2-6.3V14.2h-4.1V25.1z"/>
	<path class="st1" d="M-80.6,18c1.7-0.4,3.4-0.6,5.1-0.6c2.5,0,3.4,0.8,3.4,1.8c0,0.9-0.5,1.5-2.4,2l-2.2,0.6
		c-2.4,0.7-3.8,2.2-3.8,4.8c0,3.2,2.7,5.6,7.4,5.6c1.7,0,3.1-0.1,4.4-0.4l-0.3-3.4c-1.5,0.3-2.8,0.4-4.3,0.4c-2.2,0-3.2-0.8-3.2-1.7
		c0-0.9,0.4-1.4,2.1-1.8l2.1-0.6c3.1-0.8,4.3-2.4,4.3-4.8c0-3.7-2.8-5.9-7.4-5.9c-2,0-3.7,0.1-5.1,0.5V18z"/>
	<path class="st1" d="M-51.5,14.2h-3.8v1.2c-1.5-0.9-2.9-1.4-5-1.4c-3.6,0-5.7,2-5.7,5c0,3.3,2.5,5.6,8.1,5.6c0.9,0,1.7,0,2.4,0v1
		c0,1.9-1.2,3-4,3c-1.7,0-3.2-0.3-5.1-1.1l-0.6,3.4c2.2,0.9,4.1,1.4,6.4,1.4c4.8,0,7.2-2.3,7.2-6.3V14.2z M-59.2,17.2
		c1.4,0,2.5,0.3,3.7,0.9v3.3c-0.7,0-1.6,0.1-2.3,0.1c-2.9,0-4-0.9-4-2.3C-61.9,18-60.9,17.2-59.2,17.2z"/>
	<path class="st1" d="M-26,25.1c0,2.3-1.2,3.4-3.2,3.4c-1.3,0-2.1-0.2-3.3-0.7V14.2h-4.1v10.9c0,2.4-1.1,3.4-3.2,3.4
		c-1.3,0-2.1-0.2-3.3-0.7V14.2h-4.1v17.7l4,0.2v-1.3c1.6,1,2.9,1.4,4.7,1.4c2.3,0,3.8-0.7,4.9-1.9c1.8,1.3,3.5,1.9,5.7,1.9
		c3.9,0,6.2-2.3,6.2-6.3V14.2H-26V25.1z"/>
	<path class="st1" d="M-10.6,32.4c4.4,0,7.1-2.6,7.1-7.3c0-1.1,0-2.2-0.1-3h-11c0.4-3.2,2.3-4.6,5.5-4.6c2,0,3.4,0.3,5.2,0.9v-3.4
		C-5.9,14.3-7.3,14-9.7,14c-5.4,0-8.9,2.9-8.9,9.1C-18.6,29.2-15,32.4-10.6,32.4z M-7.5,25.1c0,2.4-1.3,4-3.4,4
		c-1.9,0-3.3-1.4-3.7-4H-7.5z"/>
	<path class="st1" d="M10.8,25.1c0,2.3-1.2,3.3-3.3,3.3c-1.3,0-2.2-0.2-3.5-0.7V14.2H0v17.7l4,0.2v-1.3c1.5,1,2.9,1.4,4.7,1.4
		c3.9,0,6.2-2.2,6.2-6.3V14.2h-4.1V25.1z"/>
	<path class="st1" d="M36.8,14.2h-4.1v24.9l4.1,0.2V25.6h1.5l5.1,6.4h4.6L42,24.5l6.6-10.3h-4.9l-5,8.2h-1.8V14.2z"/>
	<path class="st1" d="M60.2,28.1c-0.8,0.2-1.3,0.3-2,0.3c-1.1,0-2.2-0.4-3.5-1.3V14.2h-4.1v17.7l4,0.2v-2.1c1.2,1.6,2.3,2.2,3.7,2.2
		c0.8,0,1.4-0.1,2.1-0.3L60.2,28.1z"/>
	<path class="st1" d="M64.6,39.4c1.5,0,2.4-1,2.4-2.3c0-1.3-0.9-2.3-2.4-2.3c-1.5,0-2.4,0.9-2.4,2.3C62.3,38.3,63.1,39.4,64.6,39.4z
		 M66.7,14.2h-4.1v17.7l4.1,0.2V14.2z"/>
	<path class="st1" d="M75.4,14.2c0-4.5-2.8-6.5-6.4-7l-0.4,3.2c1.9,0.5,2.7,1.6,2.7,3.7v17.8l4.1,0.2V14.2z M73.3,39.4
		c1.5,0,2.4-1,2.4-2.3c0-1.3-0.9-2.3-2.4-2.3s-2.4,0.9-2.4,2.3C70.9,38.3,71.8,39.4,73.3,39.4z"/>
	<path class="st1" d="M85.2,17.7h4.2c3.8,0,5.4-1.5,5.4-4.4c0-3.4-2.8-6.1-9.3-6.1c-5.1,0-7.4,1.8-7.4,4.6c0,1.7,0.9,3.1,2.7,3.9
		v0.1c-0.8,0.4-1.4,1.3-1.4,2.4c0,1.1,0.7,2.2,2,2.7v0.1c-1.6,0.9-2.6,2.4-2.6,4.7c0,4.3,2.9,6.7,7.4,6.7c1,0,1.8-0.1,2.7-0.4h5.8
		v-2.7h-2.7V29c0.8-0.6,1.4-1.8,1.4-3.3c0-3.9-2.7-6-7.6-6c-0.8,0-1.5,0.1-2.2,0.3c-0.5-0.3-0.8-0.7-0.8-1.1
		C83,18.1,83.6,17.7,85.2,17.7z M86,10.2c3.9,0,5.3,1,5.3,2.4c0,1-0.6,1.6-2.4,1.7L83,14.4c-0.7-0.5-1-1-1-1.9
		C82,11.1,83.2,10.2,86,10.2z M89.7,26c0,2.2-1.2,3.3-3.5,3.3c-2,0-3.5-1.2-3.5-3.6c0-2.3,1.3-3.3,3.4-3.3
		C88.4,22.5,89.7,23.5,89.7,26z"/>
	<path class="st1" d="M104.6,32.4c4.4,0,7.1-2.6,7.1-7.3c0-1.1,0-2.2-0.1-3h-11c0.4-3.2,2.3-4.6,5.5-4.6c2,0,3.4,0.3,5.2,0.9v-3.4
		c-1.9-0.6-3.3-0.9-5.7-0.9c-5.4,0-8.9,2.9-8.9,9.1C96.6,29.2,100.2,32.4,104.6,32.4z M107.7,25.1c0,2.4-1.3,4-3.4,4
		c-1.9,0-3.3-1.4-3.7-4H107.7z"/>
	<path class="st1" d="M125.9,25.1c0,2.3-1.2,3.3-3.3,3.3c-1.3,0-2.2-0.2-3.5-0.7V14.2h-4.1v17.7l4,0.2v-1.3c1.5,1,2.9,1.4,4.7,1.4
		c3.9,0,6.2-2.2,6.2-6.3V14.2h-4.1V25.1z"/>
	<path class="st1" d="M159.3,14.2h-5.6l-2.6,9.6H151l-2.9-9.6h-5.4L137.9,32h4.7l3-14.4h0.2l3.5,11.1l-0.9,3.3h4.1l4-14.4h0.2
		l3.1,14.4h4.2L159.3,14.2z"/>
	<path class="st1" d="M173.4,32.4c4.4,0,7.1-2.6,7.1-7.3c0-1.1,0-2.2-0.1-3h-11c0.4-3.2,2.3-4.6,5.5-4.6c2,0,3.4,0.3,5.2,0.9v-3.4
		c-1.9-0.6-3.3-0.9-5.7-0.9c-5.4,0-8.9,2.9-8.9,9.1C165.3,29.2,168.9,32.4,173.4,32.4z M176.4,25.1c0,2.4-1.3,4-3.4,4
		c-1.9,0-3.3-1.4-3.7-4H176.4z"/>
	<path class="st1" d="M-149.8-21.9c-1.1,0.2-2,0.3-3.2,0.3c-2.8,0-4.8-2-4.8-5.5c0-3.9,2.1-5.5,4.9-5.5c1.2,0,2.2,0.1,3.4,0.5v-3.5
		c-1.2-0.4-2.4-0.5-3.8-0.5c-5.2,0-8.6,2.8-8.6,8.9c0,5.9,4,9.4,8.7,9.4c1.5,0,2.5-0.1,3.7-0.4L-149.8-21.9z"/>
	<path class="st1" d="M-139.2-36.2c-4.9,0-8.4,3-8.4,8.9c0,5.9,4.1,9.6,8.9,9.6c4.9,0,8.4-3,8.4-8.9
		C-130.3-32.5-134.4-36.2-139.2-36.2z M-138.9-21.4c-2.5,0-4.4-2.1-4.4-5.8c0-3.7,1.7-5.4,4.4-5.4c2.5,0,4.4,2.1,4.4,5.8
		C-134.5-23.2-136.3-21.4-138.9-21.4z"/>
	<path class="st1" d="M-117.2-22c-0.8,0.2-1.3,0.3-2,0.3c-1.1,0-2.2-0.4-3.5-1.3v-12.8h-4.1v17.7l4,0.2v-2.1
		c1.2,1.6,2.3,2.2,3.7,2.2c0.8,0,1.4-0.1,2.1-0.3L-117.2-22z"/>
	<path class="st1" d="M-107.6-36.2c-4.9,0-8.4,3-8.4,8.9c0,5.9,4.1,9.6,8.9,9.6c4.9,0,8.4-3,8.4-8.9
		C-98.7-32.5-102.8-36.2-107.6-36.2z M-107.3-21.4c-2.5,0-4.4-2.1-4.4-5.8c0-3.7,1.7-5.4,4.4-5.4c2.5,0,4.4,2.1,4.4,5.8
		C-102.9-23.2-104.6-21.4-107.3-21.4z"/>
	<path class="st1" d="M-84.3-25c0,2.3-1.2,3.3-3.3,3.3c-1.3,0-2.2-0.2-3.5-0.7v-13.6h-4.1v17.7l4,0.2v-1.3c1.5,1,2.9,1.4,4.7,1.4
		c3.9,0,6.2-2.2,6.2-6.3v-11.7h-4.1V-25z"/>
	<path class="st1" d="M-62.8-35.9h-3.8v1.2c-1.5-0.9-2.9-1.4-5-1.4c-3.6,0-5.7,2-5.7,5c0,3.3,2.5,5.6,8.1,5.6c0.9,0,1.7,0,2.4,0v1
		c0,1.9-1.2,3-4,3c-1.7,0-3.2-0.3-5.1-1.1l-0.6,3.4c2.2,0.9,4.1,1.4,6.4,1.4c4.8,0,7.2-2.3,7.2-6.3V-35.9z M-70.4-32.9
		c1.4,0,2.5,0.3,3.7,0.9v3.3c-0.7,0-1.6,0.1-2.3,0.1c-2.9,0-4-0.9-4-2.3C-73.1-32.1-72.1-32.9-70.4-32.9z"/>
	<path class="st1" d="M-45.2-36.2c-4.9,0-8.4,3-8.4,8.9c0,5.9,4.1,9.6,8.9,9.6c4.9,0,8.4-3,8.4-8.9C-36.4-32.5-40.5-36.2-45.2-36.2z
		 M-45-21.4c-2.5,0-4.4-2.1-4.4-5.8c0-3.7,1.7-5.4,4.4-5.4c2.5,0,4.4,2.1,4.4,5.8C-40.6-23.2-42.3-21.4-45-21.4z"/>
	<path class="st1" d="M-22-25c0,2.3-1.2,3.3-3.3,3.3c-1.3,0-2.2-0.2-3.5-0.7v-13.6h-4.1v17.7l4,0.2v-1.3c1.5,1,2.9,1.4,4.7,1.4
		c3.9,0,6.2-2.2,6.2-6.3v-11.7H-22V-25z"/>
	<path class="st1" d="M1.3-35.9h-4v1.2c-1.3-0.9-2.8-1.4-4.6-1.4c-4.4,0-7.4,3-7.4,8.7c0,6,3.9,9.5,9.3,9.5c0.9,0,1.8-0.1,2.6-0.3
		v7.2l4.1,0.2V-35.9z M-10.5-27.2c0-3.8,1.8-5.4,4.5-5.4c1.3,0,2.1,0.2,3.3,0.8v10.2c-0.9,0.1-1.6,0.2-2.6,0.2
		C-8.4-21.4-10.5-23.5-10.5-27.2z"/>
	<path class="st1" d="M12.9-17.8c4.4,0,7.1-2.6,7.1-7.3c0-1.1,0-2.2-0.1-3h-11c0.4-3.2,2.3-4.6,5.5-4.6c2,0,3.4,0.3,5.2,0.9v-3.4
		c-1.9-0.6-3.3-0.9-5.7-0.9c-5.4,0-8.9,2.9-8.9,9.1C4.9-21,8.5-17.8,12.9-17.8z M16-25.1c0,2.4-1.3,4-3.4,4c-1.9,0-3.3-1.4-3.7-4H16
		z"/>
	<path class="st1" d="M33-22c-0.8,0.2-1.3,0.3-2,0.3c-1.1,0-2.2-0.4-3.5-1.3v-12.8h-4.1v17.7l4,0.2v-2.1c1.2,1.6,2.3,2.2,3.7,2.2
		c0.8,0,1.4-0.1,2.1-0.3L33-22z"/>
	<path class="st1" d="M52.4-21.9c-1.1,0.2-2,0.3-3.2,0.3c-2.8,0-4.8-2-4.8-5.5c0-3.9,2.1-5.5,4.9-5.5c1.2,0,2.2,0.1,3.4,0.5v-3.5
		c-1.2-0.4-2.4-0.5-3.8-0.5c-5.2,0-8.6,2.8-8.6,8.9c0,5.9,4,9.4,8.7,9.4c1.5,0,2.5-0.1,3.7-0.4L52.4-21.9z"/>
	<path class="st1" d="M63-36.2c-4.9,0-8.4,3-8.4,8.9c0,5.9,4.1,9.6,8.9,9.6c4.9,0,8.4-3,8.4-8.9C71.8-32.5,67.7-36.2,63-36.2z
		 M63.2-21.4c-2.5,0-4.4-2.1-4.4-5.8c0-3.7,1.7-5.4,4.4-5.4c2.5,0,4.4,2.1,4.4,5.8C67.7-23.2,65.9-21.4,63.2-21.4z"/>
	<path class="st1" d="M86.2-25c0,2.3-1.2,3.3-3.3,3.3c-1.3,0-2.2-0.2-3.5-0.7v-13.6h-4.1v17.7l4,0.2v-1.3c1.5,1,2.9,1.4,4.7,1.4
		c3.9,0,6.2-2.2,6.2-6.3v-11.7h-4.1V-25z"/>
	<path class="st1" d="M93-18.1h2.2v3.2l4.1,0.4v-3.6h4.5v-3.1h-4.5v-8.4c0-2.1,1.1-3,2.7-3c0.9,0,1.4,0.1,2.3,0.3v-3.4
		c-1.2-0.3-2.1-0.4-3.5-0.4c-3.3,0-5.5,1.9-5.5,5.9v9H93V-18.1z"/>
	<path class="st1" d="M116.4-22c-0.8,0.2-1.3,0.3-2,0.3c-1.1,0-2.2-0.4-3.5-1.3v-12.8h-4.1v17.7l4,0.2v-2.1c1.2,1.6,2.3,2.2,3.7,2.2
		c0.8,0,1.4-0.1,2.1-0.3L116.4-22z"/>
	<path class="st1" d="M126.1-36.2c-4.9,0-8.4,3-8.4,8.9c0,5.9,4.1,9.6,8.9,9.6c4.9,0,8.4-3,8.4-8.9
		C134.9-32.5,130.8-36.2,126.1-36.2z M126.3-21.4c-2.5,0-4.4-2.1-4.4-5.8c0-3.7,1.7-5.4,4.4-5.4c2.5,0,4.4,2.1,4.4,5.8
		C130.8-23.2,129-21.4,126.3-21.4z"/>
	<path class="st1" d="M142.6-35.9h-4.1v24.9l4.1,0.2V-35.9z"/>
	<path class="st1" d="M154.2-17.8c4.4,0,7.1-2.6,7.1-7.3c0-1.1,0-2.2-0.1-3h-11c0.4-3.2,2.3-4.6,5.5-4.6c2,0,3.4,0.3,5.2,0.9v-3.4
		c-1.9-0.6-3.3-0.9-5.7-0.9c-5.4,0-8.9,2.9-8.9,9.1C146.1-21,149.7-17.8,154.2-17.8z M157.3-25.1c0,2.4-1.3,4-3.4,4
		c-1.9,0-3.3-1.4-3.7-4H157.3z"/>
</symbol>
<use xlink:href="#New_Symbol"  width="377.3" height="96.3" x="-188.6" y="-48.2" transform="matrix(1 0 0 -1 190.6498 53.6559)" style="overflow:visible;"/>
</svg>
