<?xml version="1.0" encoding="utf-8"?>
<!-- Generator: Adobe Illustrator 24.0.1, SVG Export Plug-In . SVG Version: 6.00 Build 0)  -->
<svg version="1.1" id="Laag_1" xmlns="http://www.w3.org/2000/svg" xmlns:xlink="http://www.w3.org/1999/xlink" x="0px" y="0px"
	 viewBox="0 0 153.7 156.9" style="enable-background:new 0 0 153.7 156.9;" xml:space="preserve">
<style type="text/css">
	.st0{fill:#FFFFFF;}
	.st1{fill:#EB6E08;}
</style>
<g>
	<g>
		<g>
			<path d="M148.8,129.1c0,11-9,20-20,20H27.1c-11,0-20-9-20-20V27.3c0-11,9-20,20-20h101.7c11,0,20,9,20,20V129.1z"/>
		</g>
	</g>
	<g>
		<path class="st0" d="M22.8,115.6V82.1h9.6c11.3,0,17.6,5.7,17.6,15.8c0,12.1-6.8,17.7-17.8,17.7H22.8z M29,110.5h3.5
			c6.7,0,11.1-3.6,11.1-12.4c0-7.2-4.4-11-11.6-11H29V110.5z"/>
		<path class="st0" d="M58.3,79.8c2.2,0,3.4,1.4,3.4,3.3c0,1.8-1.2,3.3-3.4,3.3c-2.2,0-3.4-1.3-3.4-3.3
			C54.9,81.4,56.1,79.8,58.3,79.8z M61.2,115.6h-5.8V90.4l5.8-0.3V115.6z"/>
		<path class="st0" d="M75.2,110.7h6c5.4,0,7.7,2.1,7.7,6.2c0,4.8-4,8.7-13.2,8.7c-7.2,0-10.5-2.6-10.5-6.5c0-2.4,1.3-4.4,3.8-5.5
			v-0.2c-1.2-0.6-2-1.9-2-3.4c0-1.6,1-3.1,2.8-3.8v-0.2c-2.3-1.3-3.6-3.4-3.6-6.7c0-6.1,4.1-9.4,10.5-9.4c1.4,0,2.6,0.2,3.9,0.5h8.2
			v3.8H85v0.2c1.1,0.8,2,2.6,2,4.7c0,5.6-3.8,8.5-10.7,8.5c-1.1,0-2.2-0.2-3.2-0.4c-0.7,0.4-1.1,1-1.1,1.6
			C72,110.1,72.9,110.7,75.2,110.7z M76.3,121.3c5.5,0,7.5-1.4,7.5-3.4c0-1.5-0.9-2.3-3.4-2.3l-8.4-0.3c-1,0.7-1.4,1.5-1.4,2.7
			C70.6,120,72.4,121.3,76.3,121.3z M81.6,98.8c0-3.1-1.7-4.7-4.9-4.7c-2.9,0-4.9,1.6-4.9,5.1c0,3.3,1.8,4.6,4.8,4.6
			C79.8,103.8,81.6,102.3,81.6,98.8z"/>
		<path class="st1" d="M95.6,79.8c2.2,0,3.4,1.4,3.4,3.3c0,1.8-1.2,3.3-3.4,3.3c-2.2,0-3.4-1.3-3.4-3.3
			C92.3,81.4,93.4,79.8,95.6,79.8z M98.5,115.6h-5.8V90.4l5.8-0.3V115.6z"/>
		<path class="st1" d="M105.9,115.6V82.1h9.6c11.3,0,17.6,5.7,17.6,15.8c0,12.1-6.8,17.7-17.8,17.7H105.9z M112,110.5h3.5
			c6.7,0,11.1-3.6,11.1-12.4c0-7.2-4.4-11-11.6-11H112V110.5z"/>
	</g>
</g>
</svg>
