<?xml version="1.0" encoding="utf-8"?>
<!-- Generator: Adobe Illustrator 24.0.1, SVG Export Plug-In . SVG Version: 6.00 Build 0)  -->
<svg version="1.1" id="Laag_1" xmlns="http://www.w3.org/2000/svg" xmlns:xlink="http://www.w3.org/1999/xlink" x="0px" y="0px"
	 viewBox="0 0 50 99" style="enable-background:new 0 0 50 99;" xml:space="preserve">
<style type="text/css">
	.st0{fill:none;}
	.st1{fill:#154273;}
	.st2{fill:#FFFFFF;}
</style>
<g id="Laag_1_1_">
	<g>
		<rect y="-1" class="st0" width="314" height="125"/>
		<rect y="-1" class="st1" width="50" height="100"/>
	</g>
	<path class="st2" d="M25.9,76.3H25v-2.4h0.9V76.3z M29.8,65.7H29v-2.4h0.9V65.7z M13.7,61.5c-0.1,0-0.5,0-0.5,0.1
		c0,0.1,0.2,0,0.5,0.1c0.7,0.1,1,0.5,1.5,0.5c0.4,0,0.9-0.3,0.7-0.9c0-0.1-0.1-0.1-0.1,0c-0.1,0.3-0.4,0.5-0.8,0.5
		C14.5,61.7,14.4,61.5,13.7,61.5z M8.9,63.9C9,64,9.8,65.1,8.6,65.5c-0.1,0-0.1,0.1,0,0.1c0.9,0.4,1.4-0.3,1.4-0.3
		c0.5,1.1-0.3,1.7-0.3,1.7c0.1,0.2,0.5,0.5,1.2,0.7c0.3-0.1,0.6-0.4,0.8-0.8c0,0,0.2,0.5,0,0.9c1.9,0.2,2.6-1.3,4-1.1
		c0,0,0.1,0,0.1-0.1c0-0.9-0.6-2.7-2.4-3c-1.8-0.3-1.3-1.1-1.3-1.1c0.8,0,1.2,0.3,1.2,0.3c0.1-0.2-0.1-0.5-0.1-0.5
		c0.1-0.1,0.1-0.4,0.1-0.4c-0.9,0-1.1-0.2-1.1-0.2c-0.1-0.5,0.2-1.2,1.5-0.5c0.3-0.3,0.3-0.7,0.3-0.7c0.1,0,0.2-0.2,0.2-0.3
		c0-0.2-1-0.8-1.3-0.9c-0.1-0.3-0.5-0.8-1.7-0.6c-0.6,0.1-1-0.1-0.8-0.4c0-0.1-0.1-0.1-0.1,0c-0.1,0.1-0.3,0.5,0.2,0.8
		c0.5,0.3,0.6,0.8,0.6,0.9c0,0.1-0.1,0.1-0.2,0c-0.3-0.9-1.5-1.1-2.3-0.6c0,0.5,0.6,0.8,0.9,0.8c0.2,0,0.4-0.2,0.4-0.4
		c0-0.1,0.1-0.1,0.1,0c0.1,0.3-0.4,1-1.1,0.6c-0.7,0.7-0.4,1.7-0.4,2c0.1,0.6-0.2,1.2-0.7,0.9c0,0-0.1,0-0.1,0
		C7.8,63.8,8.3,64.3,8.9,63.9z M13,60.2c-0.3,0.4-0.9,0.3-1-0.3C12.7,59.8,13,59.9,13,60.2z M35.1,61.7c-0.4,0-0.7-0.2-0.8-0.5
		c0-0.1-0.1-0.1-0.1,0c-0.2,0.6,0.3,0.9,0.7,0.9c0.5,0,0.8-0.4,1.5-0.5c0.3-0.1,0.5,0,0.5-0.1c0-0.1-0.5-0.1-0.5-0.1
		C35.6,61.5,35.5,61.7,35.1,61.7z M42.2,63.5C42.2,63.4,42.2,63.4,42.2,63.5c-0.6,0.2-0.9-0.4-0.8-1c0.1-0.3,0.4-1.3-0.4-2
		c-0.7,0.4-1.2-0.3-1.1-0.6c0-0.1,0.1-0.1,0.1,0c0,0.2,0.2,0.4,0.4,0.4c0.3,0,0.8-0.3,0.9-0.8c-0.8-0.5-2-0.3-2.3,0.6
		c0,0.1-0.2,0.1-0.2,0c0-0.1,0-0.6,0.6-0.9c0.5-0.2,0.3-0.6,0.2-0.8c-0.1-0.1-0.2,0-0.1,0c0.2,0.3-0.2,0.5-0.8,0.4
		c-1.2-0.2-1.6,0.3-1.7,0.6c-0.3,0.1-1.3,0.6-1.3,0.9c0,0.1,0.1,0.2,0.2,0.3c0,0,0,0.4,0.3,0.7c1.3-0.8,1.6-0.1,1.5,0.5
		c0,0-0.2,0.2-1.1,0.2c0,0,0,0.3,0.1,0.4c0,0-0.2,0.2-0.1,0.5c0,0,0.4-0.3,1.2-0.3c0,0,0.5,0.7-1.3,1.1c-1.8,0.3-2.4,2.1-2.4,3
		c0,0,0,0.1,0.1,0.1c1.5-0.3,2.1,1.2,4,1.1c-0.2-0.4,0-0.9,0-0.9c0.1,0.4,0.5,0.7,0.8,0.8c0.7-0.2,1.1-0.5,1.2-0.7
		c0,0-0.7-0.6-0.2-1.7c0,0,0.5,0.7,1.4,0.3c0.1,0,0.1-0.1,0-0.1c-1.3-0.4-0.4-1.5-0.4-1.6C41.7,64.3,42.2,63.8,42.2,63.5z
		 M38.1,59.9c-0.1,0.6-0.7,0.7-1,0.3C37.1,59.9,37.4,59.8,38.1,59.9z M24.7,49.2c0,0.2,0.1,0.3,0.1,0.4c0.1,0.2,0.1,0.2,0,0.3
		c-0.1,0.1-0.1,0.1-0.3,0c-0.1-0.1-0.2-0.1-0.4-0.1c-0.3,0-0.4,0.2-0.4,0.3c0,0.2,0.1,0.3,0.4,0.3c0.2,0,0.3-0.1,0.4-0.1
		c0.2-0.1,0.2-0.1,0.3,0c0.1,0.1,0,0.6-0.1,1c-0.5,0.1-0.7,0.5-0.7,0.7c0,0.5,0.6,0.9,0.9,1c0.3-0.2,0.9-0.5,0.9-1
		c0-0.2-0.2-0.6-0.7-0.7c-0.1-0.4-0.1-1-0.1-1c0.1-0.1,0.1-0.1,0.3,0c0.1,0.1,0.2,0.1,0.4,0.1c0.3,0,0.4-0.2,0.4-0.3
		c0-0.2-0.1-0.3-0.4-0.3c-0.2,0-0.3,0.1-0.4,0.1c-0.2,0.1-0.2,0.1-0.3,0c-0.1-0.1-0.1-0.1,0-0.3c0.1-0.1,0.1-0.2,0.1-0.4
		c0-0.3-0.2-0.4-0.3-0.4C24.9,48.8,24.7,48.9,24.7,49.2z M25,53.2c-0.4,0-0.7,0.3-0.7,0.7c0,0.4,0.3,0.7,0.7,0.7
		c0.4,0,0.7-0.3,0.7-0.7C25.7,53.5,25.4,53.2,25,53.2z M25,59.6c2.7,0,4.2,0.5,4.2,0.5c0-1.3,0-2.1,0.8-2c-0.4-1.1,1.4-1.6,1.4-3.1
		c0-1-0.7-1.1-0.9-1.1c-0.6,0-0.5,0.4-1,0.4c-0.1,0-0.1,0-0.1,0c0,0.2,0.1,0.5,0.4,0.5c0.3,0,0.3-0.3,0.6-0.3c0.1,0,0.2,0.1,0.2,0.4
		c0,0.6-0.4,1.3-0.9,1.9c-0.1-0.2-0.3-0.2-0.4-0.2c-0.3,0-0.5,0.3-0.5,0.7c0,0.1,0,0.2,0.1,0.4c-0.2,0.1-0.3,0.1-0.4,0.1
		c-0.2,0-0.5-0.1-0.5-0.6c0-1.1,1.4-2,1.4-3.4c0-0.6-0.4-1.3-1.3-1.3c-1,0-0.8,0.9-1.6,0.9c0,0-0.1,0-0.1,0c0,0.1,0.1,0.5,0.6,0.5
		c0.5,0,0.6-0.8,1-0.8c0.2,0,0.4,0.1,0.4,0.6c0,0.4-0.2,1.1-0.5,1.8c-0.1-0.1-0.3-0.2-0.4-0.2c-0.4,0-0.6,0.3-0.6,0.8
		c0,0.3,0.1,0.5,0.3,0.7c-0.2,0.3-0.4,0.5-0.7,0.5c-0.6,0-0.8-0.3-0.8-0.7c0-0.4,0.7-0.5,0.7-1.1c0-0.4-0.3-0.6-0.5-0.6
		c-0.3,0-0.4,0.2-0.4,0.2c0,0-0.2-0.2-0.4-0.2c-0.3,0-0.5,0.2-0.5,0.6c0,0.6,0.7,0.7,0.7,1.1c0,0.4-0.3,0.7-0.8,0.7
		c-0.3,0-0.5-0.2-0.7-0.5c0.2-0.2,0.3-0.4,0.3-0.7c0-0.4-0.3-0.8-0.6-0.8c-0.2,0-0.3,0.1-0.4,0.2c-0.3-0.7-0.5-1.3-0.5-1.8
		c0-0.5,0.2-0.6,0.4-0.6c0.4,0,0.5,0.8,1,0.8c0.4,0,0.6-0.5,0.6-0.5c0,0,0,0-0.1,0c-0.8,0-0.7-0.9-1.6-0.9c-0.9,0-1.3,0.6-1.3,1.3
		c0,1.4,1.4,2.3,1.4,3.4c0,0.5-0.3,0.6-0.5,0.6c-0.1,0-0.3-0.1-0.4-0.1c0-0.1,0.1-0.2,0.1-0.4c0-0.4-0.3-0.7-0.5-0.7
		c-0.2,0-0.3,0.1-0.4,0.2c-0.5-0.5-0.9-1.2-0.9-1.9c0-0.3,0.1-0.4,0.2-0.4c0.2,0,0.2,0.3,0.6,0.3c0.2,0,0.4-0.3,0.4-0.5
		c0,0-0.1,0-0.1,0c-0.5,0-0.4-0.4-1-0.4c-0.2,0-0.9,0.1-0.9,1.1c0,1.5,1.8,1.9,1.4,3.1c0.8-0.1,0.8,0.6,0.8,2
		C20.9,60.2,22.4,59.6,25,59.6z M20.1,61.6c-0.7,0.2-1.2,0.3-1.5,0.4c0-0.3,0.1-0.6,0.4-0.7c0,0,0-0.1,0-0.1c-0.6-0.4-1,0.4-1,0.4
		c-0.2,0-0.6,0.1-0.6,0.4c0,0.9-2.1,1.4-2.6,1.5c0.9,0.3,1.2,1.4,1.2,1.4c0.6-0.6,1.4-1.2,1.5-1.2c0.2,0,0.2,0.2,0.2,0.3
		c0,0,0,0.1,0.1,0c0.3-0.5,0.2-0.6,0.1-0.7c0-0.1,0-0.5,0.5-0.5v6.2l-0.2,0c-0.1,0-1-0.7-2.1-1.5c-1-0.7-1.6-0.3-2.8,0.4
		c-1.5,0.8-3.1,0.1-3.1,0.1c-1.3,1-1.8,3.7-1.8,3.7c-0.3,0.1-0.7,0.2-1.1,0.2c-1,0-1.2-0.6-1.2-1c0-1.6,2-2.2,2-3.8
		c0-0.4-0.2-1.9-2.1-1.9c-0.2,0-1.7,0-1.7,0c-0.7,0-0.9-0.5-1-0.7c0-0.1-0.1,0-0.1,0c0.1,0.1-0.1,0.3-0.1,0.7c0,0.6,0.4,1,1.1,1
		c0.3,0,0.6-0.1,0.7-0.1c0.1,0,0.1,0,0.1,0.1c-0.3,0.4-0.3,1-0.2,1.2c0,0,0.1,0,0.1,0c0.2-0.7,0.8-1.3,1.6-1.3c1,0,1,0.9,1,1.1
		c0,1.3-2.2,2.2-2.2,3.9c0,1.8,1.9,2.1,2.9,1.9c-0.1,1.8-2.1,2.4-2.1,1.1c0-0.1,0-0.1-0.1,0c-0.3,0.6-0.2,1.2,0.6,1.3
		c0.1,0,0,0,0,0.1c-0.8,0.5-0.4,2.4-0.3,3c0.1,0.8-0.8,0.7-0.8,0.7c0,0-0.1,0,0,0.1C6.2,80.1,7,79.4,7,79.4c0.5,0.2,0.2,0.6-0.2,0.9
		c-0.1,0-0.1,0.1,0,0.1c0.1,0,0.9,0.1,1.1-0.6c0.4,0.4,0.9,0.3,1,0.2c0.2-0.1,0.9-0.4,1,0.5c0,0.1,0,0,0.1,0c0.6-0.7,0-1.2-0.4-1.3
		c0,0,0.5-0.4,0.9,0.1c0,0,0.1,0,0.1,0c0-0.9-0.7-1-1.2-0.6c0-0.1-0.2-0.6,0.6-0.6c0,0,0.1,0,0-0.1c-0.6-0.6-1.1-0.1-1.2,0.1
		c-0.3,0.3-0.9,0.2-1,0.2c0.2-3.3,3.1-2.1,3.5-3.7c0-0.1,0.1-0.1,0.1,0c0.1,0.4,1.1,0.4,1.3-0.3c0,0,0-0.1,0,0
		c-0.8,0.8-2.7-1.8-0.1-3.9c2.2-1.8,4.2-0.8,4.9-0.2c0,0.3-0.1,0.3-0.2,0.4c0,0,0,0,0,0.1c0.2,0.1,0.5,0.1,0.6-0.1
		c0.5,0.3,0.1,0.7-0.1,0.9c0,0,0,0.1,0,0.1c0.4,0.1,0.8-0.4,0.8-0.6l0.1,0v1.9c0,2.7,3.1,3,6.4,5.3c3.4-2.3,6.4-2.6,6.4-5.3v-1.9
		l0.1,0c0,0.3,0.4,0.7,0.8,0.6c0,0,0.1,0,0-0.1c-0.2-0.1-0.6-0.5-0.1-0.9c0.1,0.2,0.4,0.2,0.6,0.1c0.1,0,0-0.1,0-0.1
		c-0.1,0-0.3-0.1-0.2-0.4c0.7-0.6,2.7-1.6,4.9,0.2c2.6,2.1,0.7,4.7-0.1,3.9c0,0,0,0,0,0c0.2,0.8,1.2,0.7,1.3,0.3c0,0,0-0.1,0.1,0
		c0.4,1.6,3.3,0.4,3.5,3.7c-0.1,0-0.7,0.1-1-0.2c-0.1-0.1-0.6-0.7-1.2-0.1c0,0,0,0.1,0,0.1c0.8,0,0.6,0.5,0.6,0.6
		c-0.5-0.4-1.3-0.3-1.2,0.6c0,0.1,0,0.1,0.1,0c0.4-0.5,0.9-0.2,0.9-0.1c-0.4,0.1-1,0.5-0.4,1.3c0,0,0.1,0.1,0.1,0
		c0.1-0.9,0.9-0.6,1-0.5c0.1,0.1,0.7,0.2,1-0.2c0.1,0.7,1,0.6,1.1,0.6c0.1,0,0.1,0,0-0.1c-0.4-0.2-0.7-0.7-0.2-0.9
		c0,0,0.7,0.6,1.3-0.1c0.1-0.1,0-0.1,0-0.1c-0.1,0-0.9,0.1-0.8-0.7c0-0.6,0.5-2.5-0.3-3c0,0-0.1-0.1,0-0.1c0.8-0.2,0.9-0.7,0.6-1.3
		c0-0.1-0.1-0.1-0.1,0c-0.1,1.3-2.1,0.7-2.1-1.1c1.1,0.3,2.9-0.1,2.9-1.9c0-1.7-2.2-2.7-2.2-3.9c0-0.2,0-1.1,1-1.1
		c0.8,0,1.5,0.6,1.6,1.3c0,0,0,0,0.1,0c0.1-0.2,0.1-0.8-0.2-1.2c0,0,0-0.1,0.1-0.1c0.1,0.1,0.4,0.1,0.7,0.1c0.7,0,1.1-0.4,1.1-1
		c0-0.4-0.1-0.6-0.1-0.7c0-0.1,0-0.1-0.1,0c-0.1,0.2-0.3,0.7-1,0.7c0,0-1.4,0-1.7,0c-1.9,0-2.1,1.5-2.1,1.9c0,1.5,2,2.2,2,3.8
		c0,0.4-0.2,1-1.2,1c-0.4,0-0.9-0.1-1.1-0.2c0,0-0.5-2.8-1.8-3.7c0,0-1.6,0.8-3.1-0.1c-1.2-0.6-1.7-1.1-2.8-0.4
		c-1,0.7-1.9,1.5-2.1,1.5l-0.2,0v-6.2c0.5-0.1,0.5,0.4,0.5,0.5c0,0.1-0.2,0.3,0.1,0.7c0,0,0.1,0,0.1,0c0-0.1,0.1-0.3,0.2-0.3
		c0.2,0,0.9,0.6,1.5,1.2c0,0,0.4-1.1,1.2-1.4c-0.5-0.1-2.6-0.6-2.6-1.5c0-0.3-0.3-0.4-0.6-0.4c0,0-0.4-0.9-1-0.4c0,0,0,0.1,0,0.1
		c0.3,0.1,0.4,0.4,0.4,0.7c-0.6-0.2-3.3-0.9-6.4-0.9c-1.5,0-2.9,0.2-4,0.4v2.1h-0.9V61.6L20.1,61.6 M14.4,83.6
		c-0.2-0.1-0.4-0.2-0.4-0.5v-1.3c-0.4-0.1-1.4-0.5-3.5-0.5c-1.7,0-2.3,0.4-2.3,0.5l-0.5,2.5c0,0,0.7-0.6,3.2-0.5
		c3,0.2,6.2,2,6.2,0.1v-1.1C14.7,82.7,14.4,83.5,14.4,83.6z M33,82.7v1.1c0,1.9,3.1,0.1,6.2-0.1c2.5-0.2,3.2,0.5,3.2,0.5l-0.5-2.5
		c0-0.1-0.6-0.5-2.3-0.5c-2.1,0-3.1,0.4-3.5,0.5v1.3c0,0.3-0.2,0.5-0.4,0.5C35.7,83.5,35.3,82.7,33,82.7z M25,81.6
		c4.9,0,9.8,0.3,10.5,1c0.1,0.1,0.1,0,0.1,0l0-2.6c0-0.8-5.1-1.2-10.5-1.2c-5.4,0-10.5,0.4-10.5,1.2l0,2.6c0,0,0,0.1,0.1,0
		C15.2,81.9,20.2,81.6,25,81.6z M20.7,69.4l-0.5-0.1l0,0.1l-0.6-0.3c0,0,0.4,0,0.5,0c0,0,0.1,0,0-0.1c-0.2-0.2-0.4-0.4-0.4-0.4
		s0.2,0.1,0.6,0.2c0,0,0.1,0,0,0c-0.2-0.2-0.4-0.6-0.4-0.6s0.5,0.3,0.6,0.4c0,0,0.1,0,0,0c-0.1-0.3-0.3-0.6-0.3-0.6l0.5,0.5
		c0,0,0,0,0,0c0-0.2-0.1-0.6-0.1-0.6l0.4,0.5c0,0,0,0,0.1,0c0-0.1,0-0.6,0-0.6s0.2,0.4,0.2,0.5c0,0,0,0,0.1,0c0-0.1,0.2-0.5,0.2-0.5
		l0,0.6l-0.1,0l-0.1,0.7c0.7-0.2,1.7-1.4,2.4-1.4c0.8,0,1.1,1,2.7,0.5c0.4,0.6,0.5,1.1,0.7,1.8c0.6,0.6,1.4,0.4,1.4-0.2
		c0-0.8-0.9-1-0.9-1.8c0-0.4,0.3-0.9,1-0.9c0.4,0,0.9,0.2,1.2,0.2c0.4,0,0.5-0.3,0.5-0.4c0-0.1,0.1-0.1,0.1,0c0,0.1,0,0.2,0,0.4
		c0,0.5-0.8,0.6-0.9,0.5c0,0-0.1,0,0,0c0.1,0.1,0.1,0.4,0,0.6c0,0,0,0,0,0c-0.1-0.4-0.5-0.8-0.9-0.8c-0.1,0-0.4,0.1-0.4,0.4
		c0,0.5,1,0.9,1,1.9c0,1-1,1.3-2,1c0,1,1.5,1.5,1.5,0.9c0,0,0,0,0,0c0.2,0.3,0.1,0.5-0.2,0.6c0.3,0.1,0.3,0.6,0.4,0.9
		c0.1,0.5,0.6,0.2,0.6,0.2c0,0,0,0,0,0c-0.2,0.5-0.7,0.3-0.7,0.3c-0.3,0.2,0.1,0.3,0.3,0.4c0,0,0,0,0,0c-0.2,0.1-0.5,0.2-0.7-0.1
		c-0.1,0.3-0.4,0.3-0.5,0.3c-0.2,0-0.3,0.2-0.3,0.4c0,0,0,0,0,0c-0.4-0.3-0.2-0.6,0-0.7c0,0-0.3-0.1-0.5,0.2c0,0,0,0,0,0
		c-0.2-0.5,0.2-0.7,0.5-0.5c0-0.1-0.2-0.3-0.6-0.2c0,0,0,0,0,0c0.1-0.2,0.3-0.4,0.6-0.2c0.2,0.1,0.5-0.1,0.5-0.1
		c-0.6-1.3-1.9-0.2-2.2-1.2c0,0,0,0,0,0c-0.1,0.2-0.6,0.2-0.7-0.2c0,0,0,0,0,0c0.1,0.1,0.3,0.2,0.5-0.2C26,71.5,26,71.2,26,71
		c0-0.8-0.8-2.1-2-2.1c-0.8,0-1.6,0.3-2.2,0.7l0.6,0.1c-0.1,0.6-0.6,0.9-1.1,0.8l0.1-0.7c-0.1,0-0.3,0.1-0.4,0.3c0,0,0,0,0,0
		c-0.1-0.4,0.2-0.6,0.3-0.6c0,0,0,0,0,0c-0.3,0-0.4,0.2-0.5,0.3c0,0,0,0,0,0C20.6,69.8,20.6,69.6,20.7,69.4z M22.4,73.9
		c-0.2,0.3-0.4,0-0.7,0c-0.3,0-0.3,0.2-0.3,0.3c0,0,0,0,0,0c-0.3-0.4,0-0.6,0.2-0.7c0,0-0.3-0.2-0.5,0c0,0,0,0,0,0
		c0-0.5,0.4-0.6,0.7-0.3c0-0.2-0.1-0.3-0.3-0.3c0,0,0,0,0,0c0.1-0.1,0.2-0.1,0.3-0.1c0.3,0,0.3,0.4,0.5,0.4c0.3,0,0.7-0.4,0.7-0.4
		c0,0-0.3-0.8-0.2-1.2c0,0,0,0,0,0c-0.1,0.1-0.5,0.1-0.5-0.4c0,0,0,0,0,0c0.2,0.2,0.4,0,0.5-0.2c0.1-0.1,0.8-1.2,1.8-1.2
		c0.2,0,0.5,0.1,0.7,0.3c-0.3,0.4,0,0.8,0.2,0.7c0,0,0,0,0,0c-1.3,0.5-1.8,0.7-1.8,1.7c0,0.6,0.2,0.9,0.5,0.8c0,0,0,0,0,0
		c-0.1,0.1-0.3,0.2-0.4,0.2c-0.3,0-0.3-0.1-0.4-0.1c-0.1,0-0.6,0.3-0.6,0.5c0,0.1,0.1,0.2,0.2,0.3c0,0,0,0,0,0
		C22.9,74.2,22.5,74.3,22.4,73.9z M25.7,63.7c-0.4,0-0.6,0.1-0.6,0.2C25.3,64.1,25.5,64,25.7,63.7z M24.3,64.6c0.3-0.1,0.6,0,0.6,0
		c0,0,0,0.1,0,0.1c-0.6,0.1-0.6,0.3-1,0.3c-0.2,0-0.5-0.2-0.4-0.6c0,0,0,0,0.1,0C23.6,64.6,23.8,64.8,24.3,64.6z M16.7,77.5
		c0.4,0.5,0.8,0,1.3,0c0.2,0,0.5,0.1,0.6,0.6c0,0,0,0,0,0c0.5-0.8-0.1-1.2-0.4-1.2c0.1-0.1,0.6-0.4,1,0.1c0,0,0.1,0,0.1,0
		c0-0.9-0.7-1-1.2-0.6c-0.1-0.4,0.2-0.6,0.5-0.6c0,0,0.1,0,0-0.1c-0.6-0.7-1.1,0.2-1.2,0.3c-0.3,0.3-1.2-0.3-1.5-0.7
		c0,0,0.8-0.8,0.8-1.6c0,0,0-0.1,0-0.1c0,0,0,0,0,0c0.1,0,0.2,0.1,0.3,0.1c0.2,0,0.5-0.1,0.5-0.7c0,0,0,0,0,0
		c-0.1,0.1-0.2,0.2-0.3,0.2c-0.6,0-2-2.2-3.6-2.2c-0.4,0-1.2,0.3-1.6,0.7c0.2,0.1,0.2,0.3,0.2,0.5c0,0.3-0.2,0.4-0.5,0.5
		c0,0,0,0,0,0.1c0.8,0.3,2.3,0.9,2.6,1.2c0.4,0.3,0.3,1,0.1,1.9c-0.2,0.9-0.7,0.7-0.9,0.7c0,0,0,0,0,0c0.2,0.3,0.5,0.4,0.7,0.4
		c0.4,0,0.6-0.3,0.8-0.3c0.4,0,1.1,0.5,1.1,0.9c0,0.2-0.2,0.4-0.4,0.6c0,0,0,0,0,0C15.9,78.1,16.6,78.1,16.7,77.5z M34.4,78
		C34.4,78,34.4,78,34.4,78c-0.2-0.2-0.4-0.4-0.4-0.6c0-0.4,0.8-0.9,1.1-0.9c0.2,0,0.4,0.3,0.8,0.3c0.2,0,0.5-0.1,0.7-0.4
		c0,0,0,0,0,0c-0.2,0-0.6,0.1-0.9-0.7c-0.2-0.9-0.3-1.5,0.1-1.9c0.3-0.3,1.8-0.8,2.6-1.2c0,0,0,0,0-0.1c-0.2-0.1-0.4-0.2-0.5-0.5
		c0-0.2,0-0.4,0.2-0.5c-0.4-0.4-1.2-0.7-1.6-0.7c-1.6,0-2.9,2.2-3.6,2.2c-0.1,0-0.2,0-0.3-0.2c0,0,0,0,0,0c0,0.7,0.3,0.7,0.5,0.7
		c0.1,0,0.2,0,0.3-0.1c0,0,0,0,0,0c0,0,0,0.1,0,0.1c0,0.8,0.8,1.6,0.8,1.6c-0.4,0.4-1.3,1-1.5,0.7c-0.1-0.1-0.6-1-1.2-0.3
		c0,0,0,0.1,0,0.1c0.4,0,0.6,0.2,0.5,0.6c-0.5-0.4-1.2-0.3-1.2,0.6c0,0,0,0,0.1,0c0.3-0.5,0.9-0.2,1-0.1c-0.4,0.1-1,0.5-0.4,1.2
		c0,0,0,0,0,0c0.1-0.5,0.4-0.6,0.6-0.6c0.5,0,0.9,0.5,1.3,0C33.5,78.1,34.2,78.1,34.4,78z M21.4,65.6c-0.1,0.1-0.2,0-0.3,0
		c0,0,0,0,0,0c0,0.1,0.2,0.4,0.4,0.4c0.1,0,0.3-0.1,0.3-0.1c0,0,0.9,0.3,1.4,0.4c-0.2,0.2-0.3,0.5-0.3,0.8c-0.4-0.2-1.9-1-1.9-1
		l-0.5,0.6c-0.1,0.1-0.4-0.2-0.4-0.3l0.4-0.5c-0.1-0.1-0.4,0-0.5,0c0,0,0,0,0,0c0-0.1,0.2-0.4,0.7-0.3c0-0.3-0.4-0.2-0.5-0.2
		c0,0,0,0,0,0c0.1-0.1,0.4-0.4,0.8-0.2l0.2-0.2l-0.3-0.3l0.2-0.3l0.2,0.3l1.7-2.4c0-0.1,0.4-0.2,0.5-0.2c0,0.1,0,0.5,0,0.5l-1.7,2.4
		l0.4,0.1l-0.2,0.3l-0.4-0.2L21.4,65.6z M27.5,65.2c0,0.2,0.1,0.5,0.4,0.4c0,0,0,0,0,0c0,0.2-0.5,0.5-0.7,0.2
		c-0.2,0.4-0.1,0.7,0.2,0.9c0,0,0,0,0,0.1c-0.2,0.2-0.6,0.1-0.7-0.2c-0.3,0.2-0.3,0.7-0.1,0.9c0,0-0.9,0.5-1.6,0.1
		c-0.5-0.2-0.9-0.6-1.6-0.5c0.1-0.9,0.6-1.2,1.4-1.3c0.7-0.1,0.8-0.4,0.7-0.7c-0.2-0.1-0.7,0.2-0.7,0.2c-0.1-0.1,0-0.3,0-0.3
		c0-0.1-0.1-0.2-0.1-0.2c0.5,0,0.6-0.1,0.6-0.1c0.1-0.5-0.4-0.6-0.8-0.3c-0.2-0.2-0.2-0.4-0.2-0.4c-0.1,0-0.1-0.1-0.1-0.1
		c0-0.1,0.6-0.4,0.7-0.5c0-0.2,0.2-0.4,0.8-0.3c0.1-0.2,0-0.7-0.1-0.9c0,0,0-0.1,0.1,0c0.2,0.1,0.4,0.6,0.6,0.6c0,0,0.7-0.4,0.7-0.3
		c0,0,0.1,0.8,0.1,0.8c0.1,0.1,0.6,0,0.8,0.1c0.1,0,0.1,0.1,0,0.1c-0.2,0-0.7,0.3-0.8,0.4C27.7,64.3,27.5,65,27.5,65.2z"/>
</g>
</svg>
